<?xml version="1.0" encoding="utf-8"?>
<!-- Generator: Adobe Illustrator 16.0.0, SVG Export Plug-In . SVG Version: 6.00 Build 0)  -->
<!DOCTYPE svg PUBLIC "-//W3C//DTD SVG 1.1//EN" "http://www.w3.org/Graphics/SVG/1.1/DTD/svg11.dtd">
<svg version="1.1" id="Layer_1" xmlns="http://www.w3.org/2000/svg" xmlns:xlink="http://www.w3.org/1999/xlink" x="0px" y="0px"
	 width="69.9px" height="52.1px" viewBox="0 0 69.9 52.1" style="enable-background:new 0 0 69.9 52.1;" xml:space="preserve">
<style type="text/css">
<![CDATA[
	.st0{fill:#DADADA;stroke:#CDCCCC;stroke-miterlimit:10;}
	.st1{fill:#FFFFFF;stroke:#010202;stroke-miterlimit:10;}
	.st2{fill:#FFFFFF;stroke:#010202;stroke-width:2;stroke-linejoin:round;stroke-miterlimit:10;}
	.st3{fill:none;stroke:#CDCCCC;stroke-miterlimit:10;}
	.st4{clip-path:url(#SVGID_8_);fill:#010202;}
	.st5{fill:none;stroke:#010202;stroke-width:2;stroke-linecap:round;stroke-miterlimit:10;}
	.st6{fill:#E6E6E6;stroke:#CDCCCC;stroke-miterlimit:10;}
	.st7{clip-path:url(#SVGID_2_);}
	.st8{clip-path:url(#SVGID_6_);}
	.st9{clip-path:url(#SVGID_4_);fill:none;stroke:#010202;stroke-width:2;stroke-miterlimit:10;}
	.st10{fill:none;stroke:#010202;stroke-width:2;stroke-miterlimit:10;}
	.st11{fill:none;stroke:#010202;stroke-miterlimit:10;}
	.st12{display:none;fill:none;}
	.st13{fill:#F2F2F2;stroke:#CDCCCC;stroke-miterlimit:10;}
	.st14{fill:#010202;}
	.st15{fill:#FFFFFF;stroke:#010202;stroke-width:2;stroke-miterlimit:10;}
	.st16{clip-path:url(#SVGID_4_);fill:#FFFFFF;}
	.st17{fill:none;stroke:#010202;stroke-width:2;stroke-linecap:round;stroke-linejoin:round;stroke-miterlimit:10;}
	.st18{fill:#FFFFFF;stroke:#010202;stroke-width:2;stroke-linecap:round;stroke-linejoin:round;stroke-miterlimit:10;}
]]>
</style>
<symbol  id="overheid" viewBox="-2 -5.5 4 11">
	<path id="XMLID_810_" class="st14" d="M1.5,4c0-0.8-0.7-1.5-1.5-1.5S-1.5,3.2-1.5,4S-0.8,5.5,0,5.5S1.5,4.8,1.5,4z"/>
	<path id="XMLID_379_" class="st14" d="M1.5,0c0-0.8-0.7-1.5-1.5-1.5S-1.5-0.8-1.5,0S-0.8,1.5,0,1.5S1.5,0.8,1.5,0z"/>
	<path id="XMLID_336_" class="st14" d="M1.5-4c0-0.8-0.7-1.5-1.5-1.5S-1.5-4.8-1.5-4S-0.8-2.5,0-2.5S1.5-3.2,1.5-4z"/>
	<polygon id="XMLID_814_" class="st12" points="-2,5 2,5 2,-5 -2,-5 	"/>
</symbol>
<g id="XMLID_4234_">
	<g id="XMLID_4241_">
		<rect id="XMLID_4254_" x="7.6" y="31.5" class="st18" width="25.5" height="17.9"/>
		<rect id="XMLID_2_" x="11.1" y="39.2" class="st15" width="7.6" height="5.7"/>
		<line id="XMLID_4253_" class="st17" x1="33.1" y1="31.5" x2="20.3" y2="21.7"/>
		<line id="XMLID_4252_" class="st5" x1="20.3" y1="21.7" x2="7.6" y2="31.5"/>
		<line id="XMLID_4251_" class="st10" x1="27.2" y1="49.3" x2="27.2" y2="40.3"/>
		<line id="XMLID_4250_" class="st10" x1="28.2" y1="42.3" x2="22.2" y2="42.3"/>
		<line id="XMLID_4249_" class="st10" x1="22.2" y1="42.3" x2="22.2" y2="49.3"/>
		<line id="XMLID_4244_" class="st10" x1="27.2" y1="21.3" x2="27.2" y2="27.3"/>
		<line id="XMLID_4242_" class="st10" x1="25.2" y1="21.3" x2="25.2" y2="26.3"/>
	</g>
	<line id="XMLID_4240_" class="st10" x1="57.3" y1="1.4" x2="57.6" y2="49.4"/>
	<line id="XMLID_4239_" class="st10" x1="57.3" y1="1.4" x2="66.6" y2="49.4"/>
	<line id="XMLID_4238_" class="st10" x1="57.3" y1="1.4" x2="48.1" y2="49.4"/>
	<line id="XMLID_4237_" class="st10" x1="57.2" y1="2.3" x2="9.2" y2="2.3"/>
	<line id="XMLID_4236_" class="st10" x1="58" y1="11.1" x2="11.3" y2="2.3"/>
	<line id="XMLID_4235_" class="st10" x1="9.2" y1="1.3" x2="9.2" y2="18.3"/>
</g>
</svg>
