<?xml version="1.0" encoding="utf-8"?>
<!-- Generator: Adobe Illustrator 16.0.0, SVG Export Plug-In . SVG Version: 6.00 Build 0)  -->
<!DOCTYPE svg PUBLIC "-//W3C//DTD SVG 1.1//EN" "http://www.w3.org/Graphics/SVG/1.1/DTD/svg11.dtd">
<svg version="1.1" id="Layer_1" xmlns="http://www.w3.org/2000/svg" xmlns:xlink="http://www.w3.org/1999/xlink" x="0px" y="0px"
	 width="54.7px" height="46.4px" viewBox="0 0 54.7 46.4" style="enable-background:new 0 0 54.7 46.4;" xml:space="preserve">
<style type="text/css">
<![CDATA[
	.st0{fill:#DADADA;stroke:#CDCCCC;stroke-miterlimit:10;}
	.st1{fill:#FFFFFF;stroke:#010202;stroke-miterlimit:10;}
	.st2{fill:#FFFFFF;stroke:#010202;stroke-width:2;stroke-linejoin:round;stroke-miterlimit:10;}
	.st3{fill:none;stroke:#CDCCCC;stroke-miterlimit:10;}
	.st4{clip-path:url(#SVGID_8_);fill:#010202;}
	.st5{fill:none;stroke:#010202;stroke-width:2;stroke-linecap:round;stroke-miterlimit:10;}
	.st6{fill:#E6E6E6;stroke:#CDCCCC;stroke-miterlimit:10;}
	.st7{clip-path:url(#SVGID_2_);}
	.st8{clip-path:url(#SVGID_6_);}
	.st9{clip-path:url(#SVGID_4_);fill:none;stroke:#010202;stroke-width:2;stroke-miterlimit:10;}
	.st10{fill:none;stroke:#010202;stroke-width:2;stroke-miterlimit:10;}
	.st11{fill:none;stroke:#010202;stroke-miterlimit:10;}
	.st12{display:none;fill:none;}
	.st13{fill:#F2F2F2;stroke:#CDCCCC;stroke-miterlimit:10;}
	.st14{fill:#010202;}
	.st15{fill:#FFFFFF;stroke:#010202;stroke-width:2;stroke-miterlimit:10;}
	.st16{clip-path:url(#SVGID_4_);fill:#FFFFFF;}
	.st17{fill:none;stroke:#010202;stroke-width:2;stroke-linecap:round;stroke-linejoin:round;stroke-miterlimit:10;}
	.st18{fill:#FFFFFF;stroke:#010202;stroke-width:2;stroke-linecap:round;stroke-linejoin:round;stroke-miterlimit:10;}
]]>
</style>
<symbol  id="overheid" viewBox="-2 -5.5 4 11">
	<path id="XMLID_810_" class="st14" d="M1.5,4c0-0.8-0.7-1.5-1.5-1.5S-1.5,3.2-1.5,4S-0.8,5.5,0,5.5S1.5,4.8,1.5,4z"/>
	<path id="XMLID_379_" class="st14" d="M1.5,0c0-0.8-0.7-1.5-1.5-1.5S-1.5-0.8-1.5,0S-0.8,1.5,0,1.5S1.5,0.8,1.5,0z"/>
	<path id="XMLID_336_" class="st14" d="M1.5-4c0-0.8-0.7-1.5-1.5-1.5S-1.5-4.8-1.5-4S-0.8-2.5,0-2.5S1.5-3.2,1.5-4z"/>
	<polygon id="XMLID_814_" class="st12" points="-2,5 2,5 2,-5 -2,-5 	"/>
</symbol>
<image style="overflow:visible;" width="512" height="512" id="XMLID_4121_" xlink:href="../../../../../../Downloads/factory-512.png"  transform="matrix(9.110100e-02 0 0 9.110100e-02 3.9995 -4.882812e-04)">
</image>
</svg>
