<?xml version="1.0" encoding="utf-8"?>
<!-- Generator: Adobe Illustrator 16.0.0, SVG Export Plug-In . SVG Version: 6.00 Build 0)  -->
<!DOCTYPE svg PUBLIC "-//W3C//DTD SVG 1.1//EN" "http://www.w3.org/Graphics/SVG/1.1/DTD/svg11.dtd">
<svg version="1.1" id="Layer_1" xmlns="http://www.w3.org/2000/svg" xmlns:xlink="http://www.w3.org/1999/xlink" x="0px" y="0px"
	 width="18px" height="18px" viewBox="0 0 18 18" style="enable-background:new 0 0 18 18;" xml:space="preserve">
<style type="text/css">
<![CDATA[
	.st0{fill:#FFFFFF;stroke:#000000;stroke-width:2;stroke-linejoin:round;stroke-miterlimit:10;}
	.st1{fill:#FFFFFF;stroke:#000000;stroke-miterlimit:10;}
	.st2{fill:#FFFFFF;stroke:#000000;stroke-width:2;stroke-miterlimit:10;}
	.st3{clip-path:url(#SVGID_8_);fill:#FFFFFF;}
	.st4{fill:none;stroke:#000000;stroke-width:2;stroke-linecap:square;stroke-miterlimit:10;}
	.st5{opacity:0.5;fill:#FFFF00;}
	.st6{clip-path:url(#SVGID_2_);}
	.st7{clip-path:url(#SVGID_6_);}
	.st8{clip-path:url(#SVGID_8_);fill:none;stroke:#000000;stroke-width:2;stroke-miterlimit:10;}
	.st9{display:none;fill:none;}
	.st10{fill:#FFFFFF;}
	.st11{fill:none;}
	.st12{fill:none;stroke:#000000;stroke-width:2;stroke-miterlimit:10;stroke-dasharray:3,2;}
	.st13{fill:none;stroke:#000000;stroke-width:2;stroke-miterlimit:10;stroke-dasharray:3,3;}
	.st14{fill:none;stroke:#000000;stroke-width:3;stroke-linecap:round;stroke-miterlimit:10;stroke-dasharray:1,3;}
	.st15{clip-path:url(#SVGID_4_);fill:none;stroke:#000000;stroke-width:2;stroke-miterlimit:10;}
	.st16{fill:none;stroke:#000000;stroke-width:2;stroke-miterlimit:10;}
	.st17{fill:none;stroke:#000000;stroke-width:2;stroke-linecap:round;stroke-miterlimit:10;stroke-dasharray:0,4;}
	.st18{stroke:#000000;stroke-miterlimit:10;}
	.st19{clip-path:url(#SVGID_4_);fill:#FFFFFF;}
	.st20{stroke:#000000;stroke-width:2;stroke-miterlimit:10;}
]]>
</style>
<symbol  id="New_Symbol_33" viewBox="-9 -9 18 18">
	<line id="XMLID_698_" class="st16" x1="7.1" y1="7.1" x2="-7.1" y2="-7.1"/>
	<line id="XMLID_694_" class="st16" x1="7.1" y1="-7.1" x2="-7.1" y2="7.1"/>
	<line id="XMLID_693_" class="st16" x1="9" y1="0" x2="-9" y2="0"/>
	<line id="XMLID_692_" class="st16" x1="0" y1="9" x2="0" y2="-9"/>
	<polygon id="XMLID_699_" class="st9" points="-9,9 9,9 9,-9 -9,-9 	"/>
</symbol>
<symbol  id="New_Symbol_94" viewBox="-17.8 -11.3 35.6 22.6">
	<polygon id="XMLID_2038_" class="st2" points="4.8,-10 -15.8,0.4 -1.2,10.2 16.2,4.4 	"/>
</symbol>
<symbol  id="overheid" viewBox="-2 -5.5 4 11">
	<path id="XMLID_810_" d="M1.5,4c0-0.8-0.7-1.5-1.5-1.5S-1.5,3.2-1.5,4S-0.8,5.5,0,5.5S1.5,4.8,1.5,4z"/>
	<path id="XMLID_379_" d="M1.5,0c0-0.8-0.7-1.5-1.5-1.5S-1.5-0.8-1.5,0S-0.8,1.5,0,1.5S1.5,0.8,1.5,0z"/>
	<path id="XMLID_336_" d="M1.5-4c0-0.8-0.7-1.5-1.5-1.5S-1.5-4.8-1.5-4S-0.8-2.5,0-2.5S1.5-3.2,1.5-4z"/>
	<polygon id="XMLID_814_" class="st9" points="-2,5 2,5 2,-5 -2,-5 	"/>
</symbol>
<use xlink:href="#New_Symbol_33"  width="18" height="18" id="XMLID_1563_" x="-9" y="-9" transform="matrix(1 0 0 -1 9 9)" style="overflow:visible;"/>
<g id="New_Symbol_59">
	<g id="interne_levering">
	</g>
</g>
</svg>
