<?xml version="1.0" encoding="utf-8"?>
<!-- Generator: Adobe Illustrator 16.0.0, SVG Export Plug-In . SVG Version: 6.00 Build 0)  -->
<!DOCTYPE svg PUBLIC "-//W3C//DTD SVG 1.1//EN" "http://www.w3.org/Graphics/SVG/1.1/DTD/svg11.dtd">
<svg version="1.1" id="Layer_1" xmlns="http://www.w3.org/2000/svg" xmlns:xlink="http://www.w3.org/1999/xlink" x="0px" y="0px"
	 width="10px" height="17px" viewBox="0 0 10 17" style="enable-background:new 0 0 10 17;" xml:space="preserve">
<style type="text/css">
<![CDATA[
	.st0{fill:#FFFFFF;stroke:#000000;stroke-width:2;stroke-linejoin:round;stroke-miterlimit:10;}
	.st1{fill:#FFFFFF;stroke:#000000;stroke-miterlimit:10;}
	.st2{fill:#FFFFFF;stroke:#000000;stroke-width:2;stroke-miterlimit:10;}
	.st3{clip-path:url(#SVGID_8_);fill:#FFFFFF;}
	.st4{fill:none;stroke:#0000FF;stroke-width:2;stroke-miterlimit:10;}
	.st5{fill:none;stroke:#000000;stroke-width:2;stroke-linecap:square;stroke-miterlimit:10;}
	.st6{opacity:0.5;fill:#FFFF00;}
	.st7{clip-path:url(#SVGID_2_);}
	.st8{clip-path:url(#SVGID_6_);}
	.st9{clip-path:url(#SVGID_8_);fill:none;stroke:#000000;stroke-width:2;stroke-miterlimit:10;}
	.st10{display:none;fill:none;}
	.st11{fill:#FFFFFF;}
	.st12{fill:none;}
	.st13{fill:none;stroke:#000000;stroke-width:2;stroke-miterlimit:10;stroke-dasharray:3,3;}
	.st14{fill:none;stroke:#000000;stroke-width:3;stroke-linecap:round;stroke-miterlimit:10;stroke-dasharray:1,3;}
	.st15{fill:#0000FF;}
	.st16{clip-path:url(#SVGID_4_);fill:none;stroke:#000000;stroke-width:2;stroke-miterlimit:10;}
	.st17{fill:none;stroke:#000000;stroke-width:2;stroke-miterlimit:10;}
	.st18{stroke:#000000;stroke-miterlimit:10;}
	.st19{fill:none;stroke:#0000FF;stroke-width:1.8208;stroke-linecap:square;stroke-miterlimit:10;}
	.st20{clip-path:url(#SVGID_4_);fill:#FFFFFF;}
	.st21{stroke:#000000;stroke-width:2;stroke-miterlimit:10;}
]]>
</style>
<symbol  id="Neues_Symbol_4_1_" viewBox="-5 -6.9 9 14">
	<line class="st5" x1="-3.5" y1="5.7" x2="2" y2="0.1"/>
	<line class="st5" x1="2" y1="0.1" x2="-3.5" y2="-5.5"/>
	<polygon class="st10" points="-5,7 4,7 4,-6 -5,-6 	"/>
</symbol>
<symbol  id="New_Symbol_94" viewBox="-17.8 -11.3 35.6 22.6">
	<polygon id="XMLID_2038_" class="st2" points="4.8,-10 -15.8,0.4 -1.2,10.2 16.2,4.4 	"/>
</symbol>
<symbol  id="overheid" viewBox="-2 -5.5 4 11">
	<path id="XMLID_810_" d="M1.5,4c0-0.8-0.7-1.5-1.5-1.5S-1.5,3.2-1.5,4S-0.8,5.5,0,5.5S1.5,4.8,1.5,4z"/>
	<path id="XMLID_379_" d="M1.5,0c0-0.8-0.7-1.5-1.5-1.5S-1.5-0.8-1.5,0S-0.8,1.5,0,1.5S1.5,0.8,1.5,0z"/>
	<path id="XMLID_336_" d="M1.5-4c0-0.8-0.7-1.5-1.5-1.5S-1.5-4.8-1.5-4S-0.8-2.5,0-2.5S1.5-3.2,1.5-4z"/>
	<polygon id="XMLID_814_" class="st10" points="-2,5 2,5 2,-5 -2,-5 	"/>
</symbol>
<g id="New_Symbol_59">
	<g id="interne_levering">
		<g id="Neues_Symbol_4">
		</g>
		<g id="Neues_Symbol">
		</g>
		<g id="Neues_Symbol_1">
		</g>
		<g id="Neues_Symbol_2">
		</g>
	</g>
</g>
<g id="New_Symbol_16">
	<g id="New_Symbol_6">
		<g id="recht-2d">
		</g>
	</g>
</g>
<g id="New_Symbol_15">
	<g id="New_Symbol_5">
		<g id="plicht-2d">
		</g>
	</g>
</g>
<use xlink:href="#Neues_Symbol_4_1_"  width="9" height="14" id="XMLID_3_" x="-5" y="-6.9" transform="matrix(1 0 0 -1 5 8.4854)" style="overflow:visible;"/>
</svg>
