<?xml version="1.0" encoding="utf-8"?>
<!-- Generator: Adobe Illustrator 16.0.0, SVG Export Plug-In . SVG Version: 6.00 Build 0)  -->
<!DOCTYPE svg PUBLIC "-//W3C//DTD SVG 1.1//EN" "http://www.w3.org/Graphics/SVG/1.1/DTD/svg11.dtd">
<svg version="1.1" id="Layer_1" xmlns="http://www.w3.org/2000/svg" xmlns:xlink="http://www.w3.org/1999/xlink" x="0px" y="0px"
	 width="67.7px" height="52px" viewBox="0 0 67.7 52" style="enable-background:new 0 0 67.7 52;" xml:space="preserve">
<style type="text/css">
<![CDATA[
	.st0{fill:#DADADA;stroke:#CDCCCC;stroke-miterlimit:10;}
	.st1{fill:#FFFFFF;stroke:#010202;stroke-miterlimit:10;}
	.st2{fill:#FFFFFF;stroke:#010202;stroke-width:2;stroke-linejoin:round;stroke-miterlimit:10;}
	.st3{fill:none;stroke:#CDCCCC;stroke-miterlimit:10;}
	.st4{clip-path:url(#SVGID_8_);fill:#010202;}
	.st5{fill:none;stroke:#010202;stroke-width:2;stroke-linecap:round;stroke-miterlimit:10;}
	.st6{fill:#E6E6E6;stroke:#CDCCCC;stroke-miterlimit:10;}
	.st7{clip-path:url(#SVGID_2_);}
	.st8{clip-path:url(#SVGID_6_);}
	.st9{clip-path:url(#SVGID_4_);fill:none;stroke:#010202;stroke-width:2;stroke-miterlimit:10;}
	.st10{fill:none;stroke:#010202;stroke-width:2;stroke-miterlimit:10;}
	.st11{fill:none;stroke:#010202;stroke-miterlimit:10;}
	.st12{display:none;fill:none;}
	.st13{fill:#F2F2F2;stroke:#CDCCCC;stroke-miterlimit:10;}
	.st14{fill:#010202;}
	.st15{fill:#FFFFFF;stroke:#010202;stroke-width:2;stroke-miterlimit:10;}
	.st16{clip-path:url(#SVGID_4_);fill:#FFFFFF;}
	.st17{fill:none;stroke:#010202;stroke-width:2;stroke-linecap:round;stroke-linejoin:round;stroke-miterlimit:10;}
	.st18{fill:#FFFFFF;stroke:#010202;stroke-width:2;stroke-linecap:round;stroke-linejoin:round;stroke-miterlimit:10;}
]]>
</style>
<symbol  id="overheid" viewBox="-2 -5.5 4 11">
	<path id="XMLID_810_" class="st14" d="M1.5,4c0-0.8-0.7-1.5-1.5-1.5S-1.5,3.2-1.5,4S-0.8,5.5,0,5.5S1.5,4.8,1.5,4z"/>
	<path id="XMLID_379_" class="st14" d="M1.5,0c0-0.8-0.7-1.5-1.5-1.5S-1.5-0.8-1.5,0S-0.8,1.5,0,1.5S1.5,0.8,1.5,0z"/>
	<path id="XMLID_336_" class="st14" d="M1.5-4c0-0.8-0.7-1.5-1.5-1.5S-1.5-4.8-1.5-4S-0.8-2.5,0-2.5S1.5-3.2,1.5-4z"/>
	<polygon id="XMLID_814_" class="st12" points="-2,5 2,5 2,-5 -2,-5 	"/>
</symbol>
<g id="XMLID_4256_">
	<line id="XMLID_4278_" class="st10" x1="56.7" y1="20" x2="56.7" y2="34"/>
	<line id="XMLID_4277_" class="st10" x1="53.7" y1="30" x2="53.7" y2="37"/>
	<line id="XMLID_4276_" class="st10" x1="48.7" y1="27" x2="48.7" y2="35"/>
	<line id="XMLID_4275_" class="st10" x1="51.7" y1="19" x2="51.7" y2="31"/>
	<line id="XMLID_4274_" class="st10" x1="54.7" y1="33" x2="54.7" y2="43"/>
	<line id="XMLID_4273_" class="st10" x1="47.7" y1="40" x2="47.7" y2="49"/>
	<line id="XMLID_4272_" class="st10" x1="35.7" y1="35" x2="35.7" y2="44"/>
	<line id="XMLID_4271_" class="st10" x1="42.7" y1="29" x2="42.7" y2="39"/>
	<polygon id="XMLID_4270_" class="st15" points="54.9,29.7 49.8,27.6 52.8,24.6 58,26.6 	"/>
	<polygon id="XMLID_4269_" class="st15" points="48.6,40.4 36.3,35.5 44.7,28.1 55.9,33 	"/>
	<line id="XMLID_4268_" class="st10" x1="23.7" y1="15" x2="23.7" y2="48"/>
	<path id="XMLID_4267_" class="st10" d="M53.3,11.6c0,0-4-2.8-9.8-5.6c-5.8-2.8-13.8-0.3-18.2,1.9"/>
	<path id="XMLID_4266_" class="st10" d="M5.7,9.3c0,0,3.8-4.1,7.9-4.6c4.1-0.5,3.6,0.2,11.7,3.2"/>
	<path id="XMLID_4265_" class="st10" d="M25.3,7.9c-6.9,0.9-9.9,3.4-11.7,4.7c-1.8,1.3-2.8,3.3-3.6,4.8"/>
	<path id="XMLID_4264_" class="st10" d="M24.9,7.7c2.6,2,6.8,3.9,9.1,7.2"/>
	<path id="XMLID_4263_" class="st10" d="M52.7,11.7c-6.6-1-13.2,1.2-19.5,3.4c-2.8-0.6-5.7-0.8-8.5-0.9c-1.5,0-3,0-4.4,0.4
		c-1.4,0.4-2.8,1.3-3.5,2.5c-1.5-1.6-4.6-1.7-6.2-0.4c0.8-2.8-1-5.8-3.2-7.7C6.9,8.9,5.8,8.9,5.4,8.7"/>
	<path id="XMLID_4262_" class="st10" d="M38.6,4.5c-3.5-0.4-7-0.8-10.4-0.4c-0.5,0.1-1,0.1-1.4,0.1c-0.5,0-1.1-0.1-1.6-0.2
		c-3.1-0.4-6.3-0.3-9.3,0.3"/>
	<path id="XMLID_4261_" class="st10" d="M24.9,7.7c1-3,1.4-3.5,1.4-3.5"/>
	<path id="XMLID_4260_" class="st10" d="M45.5,32.5c0-0.3-0.3-0.4-0.6-0.4c-0.7,0-1.5,0-2.2,0.1c-0.4,0-0.8,0.1-1.1,0.4
		c-0.3,0.3-0.4,0.8-0.1,1c0.1,0.1,0.4,0.2,0.6,0.2c0.9,0.1,1.7,0,2.6-0.2c0.4-0.1,0.7-0.2,0.7-0.6c0.1,0,0.1,0,0.2,0
		c0.3,1,0,2.5,0,3.6"/>
	<path id="XMLID_4259_" class="st10" d="M45.6,36.4c0.2,0.1,0,0.4-0.2,0.6c-1.1,0.6-2.6,0.5-3.5-0.4c0-0.1-0.1-0.1-0.1-0.2
		c0.2-0.7,0.1-2.5-0.2-3.1"/>
	<path id="XMLID_4258_" class="st10" d="M43.7,33.6c0.1-0.7,0.6-1.2,0.9-1.7c0.6-0.8,1-0.7,1.4-1.6"/>
	<path id="XMLID_4257_" class="st10" d="M57.9,20.8c-1.8-0.9-3.7-1.6-5.6-2"/>
</g>
</svg>
