<?xml version="1.0" encoding="utf-8"?>
<!-- Generator: Adobe Illustrator 16.0.0, SVG Export Plug-In . SVG Version: 6.00 Build 0)  -->
<!DOCTYPE svg PUBLIC "-//W3C//DTD SVG 1.1//EN" "http://www.w3.org/Graphics/SVG/1.1/DTD/svg11.dtd">
<svg version="1.1" id="Layer_1" xmlns="http://www.w3.org/2000/svg" xmlns:xlink="http://www.w3.org/1999/xlink" x="0px" y="0px"
	 width="85px" height="44.3px" viewBox="0 0 85 44.3" style="enable-background:new 0 0 85 44.3;" xml:space="preserve">
<style type="text/css">
<![CDATA[
	.st0{fill:#DADADA;stroke:#CDCCCC;stroke-miterlimit:10;}
	.st1{fill:#FFFFFF;stroke:#010202;stroke-miterlimit:10;}
	.st2{fill:#FFFFFF;stroke:#010202;stroke-width:2;stroke-linejoin:round;stroke-miterlimit:10;}
	.st3{fill:none;stroke:#CDCCCC;stroke-miterlimit:10;}
	.st4{clip-path:url(#SVGID_8_);fill:#010202;}
	.st5{fill:none;stroke:#010202;stroke-width:2;stroke-linecap:round;stroke-miterlimit:10;}
	.st6{fill:#E6E6E6;stroke:#CDCCCC;stroke-miterlimit:10;}
	.st7{clip-path:url(#SVGID_2_);}
	.st8{clip-path:url(#SVGID_6_);}
	.st9{clip-path:url(#SVGID_4_);fill:none;stroke:#010202;stroke-width:2;stroke-miterlimit:10;}
	.st10{fill:none;stroke:#010202;stroke-width:2;stroke-miterlimit:10;}
	.st11{fill:none;stroke:#010202;stroke-miterlimit:10;}
	.st12{display:none;fill:none;}
	.st13{fill:#F2F2F2;stroke:#CDCCCC;stroke-miterlimit:10;}
	.st14{fill:#010202;}
	.st15{fill:#FFFFFF;stroke:#010202;stroke-width:2;stroke-miterlimit:10;}
	.st16{clip-path:url(#SVGID_4_);fill:#FFFFFF;}
	.st17{fill:none;stroke:#010202;stroke-width:2;stroke-linecap:round;stroke-linejoin:round;stroke-miterlimit:10;}
	.st18{fill:#FFFFFF;stroke:#010202;stroke-width:2;stroke-linecap:round;stroke-linejoin:round;stroke-miterlimit:10;}
]]>
</style>
<symbol  id="overheid" viewBox="-2 -5.5 4 11">
	<path id="XMLID_810_" class="st14" d="M1.5,4c0-0.8-0.7-1.5-1.5-1.5S-1.5,3.2-1.5,4S-0.8,5.5,0,5.5S1.5,4.8,1.5,4z"/>
	<path id="XMLID_379_" class="st14" d="M1.5,0c0-0.8-0.7-1.5-1.5-1.5S-1.5-0.8-1.5,0S-0.8,1.5,0,1.5S1.5,0.8,1.5,0z"/>
	<path id="XMLID_336_" class="st14" d="M1.5-4c0-0.8-0.7-1.5-1.5-1.5S-1.5-4.8-1.5-4S-0.8-2.5,0-2.5S1.5-3.2,1.5-4z"/>
	<polygon id="XMLID_814_" class="st12" points="-2,5 2,5 2,-5 -2,-5 	"/>
</symbol>
<g id="XMLID_168_">
	<rect id="XMLID_211_" x="4.2" y="10.3" class="st1" width="76.3" height="33.4"/>
	<line id="XMLID_209_" class="st11" x1="79" y1="22.2" x2="3" y2="22.2"/>
	<line id="XMLID_208_" class="st11" x1="79" y1="33.2" x2="3" y2="33.2"/>
	<rect id="XMLID_207_" x="8.5" y="14.4" class="st11" width="5.5" height="5.5"/>
	<rect id="XMLID_206_" x="16.4" y="14.4" class="st11" width="5.5" height="5.5"/>
	<rect id="XMLID_203_" x="24.2" y="14.4" class="st11" width="5.5" height="5.5"/>
	<rect id="XMLID_202_" x="32.1" y="14.4" class="st11" width="5.5" height="5.5"/>
	<rect id="XMLID_201_" x="39.9" y="14.4" class="st11" width="5.5" height="5.5"/>
	<rect id="XMLID_200_" x="47.8" y="14.4" class="st11" width="5.5" height="5.5"/>
	<rect id="XMLID_199_" x="55.7" y="14.4" class="st11" width="5.5" height="5.5"/>
	<rect id="XMLID_198_" x="63.5" y="14.4" class="st11" width="5.5" height="5.5"/>
	<rect id="XMLID_197_" x="71.4" y="14.4" class="st11" width="5.5" height="5.5"/>
	<rect id="XMLID_196_" x="71.4" y="25.1" class="st11" width="5.5" height="5.5"/>
	<rect id="XMLID_195_" x="63.5" y="25.1" class="st11" width="5.5" height="5.5"/>
	<rect id="XMLID_194_" x="55.7" y="25.1" class="st11" width="5.5" height="5.5"/>
	<rect id="XMLID_193_" x="47.8" y="25.1" class="st11" width="5.5" height="5.5"/>
	<rect id="XMLID_192_" x="39.9" y="25.1" class="st11" width="5.5" height="5.5"/>
	<rect id="XMLID_191_" x="32.1" y="25.1" class="st11" width="5.5" height="5.5"/>
	<rect id="XMLID_189_" x="24.2" y="25.1" class="st11" width="5.5" height="5.5"/>
	<rect id="XMLID_188_" x="16.4" y="25.1" class="st11" width="5.5" height="5.5"/>
	<rect id="XMLID_187_" x="8.5" y="25.1" class="st11" width="5.5" height="5.5"/>
	<rect id="XMLID_186_" x="8.5" y="35.9" class="st11" width="5.5" height="5.5"/>
	<rect id="XMLID_185_" x="16.4" y="35.9" class="st11" width="5.5" height="5.5"/>
	<rect id="XMLID_182_" x="24.2" y="35.9" class="st11" width="5.5" height="5.5"/>
	<rect id="XMLID_181_" x="32.1" y="35.9" class="st11" width="5.5" height="5.5"/>
	<rect id="XMLID_180_" x="39.9" y="35.9" class="st11" width="5.5" height="7.9"/>
	<rect id="XMLID_179_" x="47.8" y="35.9" class="st11" width="5.5" height="5.5"/>
	<rect id="XMLID_177_" x="55.7" y="35.9" class="st11" width="5.5" height="5.5"/>
	<rect id="XMLID_176_" x="63.5" y="35.9" class="st11" width="5.5" height="5.5"/>
	<rect id="XMLID_175_" x="71.4" y="35.9" class="st11" width="5.5" height="5.5"/>
	<line id="XMLID_174_" class="st11" x1="80.5" y1="10.3" x2="82.6" y2="2.3"/>
	<line id="XMLID_172_" class="st11" x1="80.5" y1="43.2" x2="82.6" y2="35.2"/>
	<line id="XMLID_171_" class="st11" x1="81.5" y1="34.7" x2="81.5" y2="2.7"/>
	<line id="XMLID_170_" class="st11" x1="82" y1="2.2" x2="7" y2="2.2"/>
	<line id="XMLID_169_" class="st11" x1="4.2" y1="10.3" x2="7.6" y2="2.3"/>
</g>
</svg>
