<?xml version="1.0" encoding="utf-8"?>
<!-- Generator: Adobe Illustrator 16.0.0, SVG Export Plug-In . SVG Version: 6.00 Build 0)  -->
<!DOCTYPE svg PUBLIC "-//W3C//DTD SVG 1.1//EN" "http://www.w3.org/Graphics/SVG/1.1/DTD/svg11.dtd">
<svg version="1.1" id="Layer_1" xmlns="http://www.w3.org/2000/svg" xmlns:xlink="http://www.w3.org/1999/xlink" x="0px" y="0px"
	 width="77.7px" height="55.6px" viewBox="0 0 77.7 55.6" style="enable-background:new 0 0 77.7 55.6;" xml:space="preserve">
<style type="text/css">
<![CDATA[
	.st0{fill:#DADADA;stroke:#CDCCCC;stroke-miterlimit:10;}
	.st1{fill:#FFFFFF;stroke:#010202;stroke-miterlimit:10;}
	.st2{fill:#FFFFFF;stroke:#010202;stroke-width:2;stroke-linejoin:round;stroke-miterlimit:10;}
	.st3{fill:none;stroke:#CDCCCC;stroke-miterlimit:10;}
	.st4{clip-path:url(#SVGID_8_);fill:#010202;}
	.st5{fill:none;stroke:#010202;stroke-width:2;stroke-linecap:round;stroke-miterlimit:10;}
	.st6{fill:#E6E6E6;stroke:#CDCCCC;stroke-miterlimit:10;}
	.st7{clip-path:url(#SVGID_2_);}
	.st8{clip-path:url(#SVGID_6_);}
	.st9{clip-path:url(#SVGID_4_);fill:none;stroke:#010202;stroke-width:2;stroke-miterlimit:10;}
	.st10{fill:none;stroke:#010202;stroke-width:2;stroke-miterlimit:10;}
	.st11{fill:none;stroke:#010202;stroke-miterlimit:10;}
	.st12{display:none;fill:none;}
	.st13{fill:#F2F2F2;stroke:#CDCCCC;stroke-miterlimit:10;}
	.st14{fill:#010202;}
	.st15{fill:#FFFFFF;stroke:#010202;stroke-width:2;stroke-miterlimit:10;}
	.st16{clip-path:url(#SVGID_4_);fill:#FFFFFF;}
	.st17{fill:none;stroke:#010202;stroke-width:2;stroke-linecap:round;stroke-linejoin:round;stroke-miterlimit:10;}
	.st18{fill:#FFFFFF;stroke:#010202;stroke-width:2;stroke-linecap:round;stroke-linejoin:round;stroke-miterlimit:10;}
]]>
</style>
<symbol  id="overheid" viewBox="-2 -5.5 4 11">
	<path id="XMLID_810_" class="st14" d="M1.5,4c0-0.8-0.7-1.5-1.5-1.5S-1.5,3.2-1.5,4S-0.8,5.5,0,5.5S1.5,4.8,1.5,4z"/>
	<path id="XMLID_379_" class="st14" d="M1.5,0c0-0.8-0.7-1.5-1.5-1.5S-1.5-0.8-1.5,0S-0.8,1.5,0,1.5S1.5,0.8,1.5,0z"/>
	<path id="XMLID_336_" class="st14" d="M1.5-4c0-0.8-0.7-1.5-1.5-1.5S-1.5-4.8-1.5-4S-0.8-2.5,0-2.5S1.5-3.2,1.5-4z"/>
	<polygon id="XMLID_814_" class="st12" points="-2,5 2,5 2,-5 -2,-5 	"/>
</symbol>
<g id="XMLID_156_">
	<polygon id="XMLID_167_" class="st15" points="75.4,54.3 51.4,54.3 51.4,-3.7 75.4,21.7 	"/>
	<line id="XMLID_166_" class="st10" x1="51.3" y1="13" x2="66.3" y2="13"/>
	<line id="XMLID_165_" class="st10" x1="51.3" y1="8" x2="61.3" y2="8"/>
	<line id="XMLID_164_" class="st10" x1="51.3" y1="18" x2="70.3" y2="18"/>
	<line id="XMLID_163_" class="st10" x1="50.3" y1="22" x2="74.3" y2="22"/>
	<line id="XMLID_162_" class="st10" x1="74.3" y1="26" x2="51.3" y2="26"/>
	<line id="XMLID_161_" class="st10" x1="74.3" y1="31" x2="51.3" y2="31"/>
	<line id="XMLID_160_" class="st10" x1="74.3" y1="36" x2="51.3" y2="36"/>
	<line id="XMLID_159_" class="st10" x1="74.3" y1="40" x2="51.3" y2="40"/>
	<line id="XMLID_158_" class="st10" x1="74.3" y1="45" x2="51.3" y2="45"/>
	<line id="XMLID_157_" class="st10" x1="74.3" y1="50" x2="51.3" y2="50"/>
</g>
<g id="XMLID_147_">
	<path id="XMLID_153_" class="st15" d="M47.8,27.8c-2-4.7-8.9-13.6-20.3-13.6c-13,0-22.6,4.1-25.7,13.6"/>
	<rect id="XMLID_152_" x="38.9" y="27.8" class="st15" width="8.8" height="17"/>
	<rect id="XMLID_151_" x="1.7" y="27.8" class="st15" width="8.8" height="17"/>
	<path id="XMLID_150_" class="st15" d="M38.9,27.8c-0.7-2.4-4.5-7.6-12.2-7.6c-7.9,0-15.1,4.1-16.2,7.6"/>
	<path id="XMLID_149_" class="st15" d="M38.9,28.2c-0.7-2.4-4.5-7.6-12.2-7.6c-7.9,0-15.1,4.1-16.2,7.6"/>
	<path id="XMLID_148_" class="st15" d="M38.9,45c-0.7-2.4-4.5-7.6-12.2-7.6c-7.9,0-15.1,4.1-16.2,7.6"/>
</g>
</svg>
