<?xml version="1.0" encoding="utf-8"?>
<!-- Generator: Adobe Illustrator 16.0.0, SVG Export Plug-In . SVG Version: 6.00 Build 0)  -->
<!DOCTYPE svg PUBLIC "-//W3C//DTD SVG 1.1//EN" "http://www.w3.org/Graphics/SVG/1.1/DTD/svg11.dtd">
<svg version="1.1" id="Layer_1" xmlns="http://www.w3.org/2000/svg" xmlns:xlink="http://www.w3.org/1999/xlink" x="0px" y="0px"
	 width="72.7px" height="45.4px" viewBox="0 0 72.7 45.4" style="enable-background:new 0 0 72.7 45.4;" xml:space="preserve">
<style type="text/css">
<![CDATA[
	.st0{fill:#DADADA;stroke:#CDCCCC;stroke-miterlimit:10;}
	.st1{fill:#FFFFFF;stroke:#010202;stroke-miterlimit:10;}
	.st2{fill:#FFFFFF;stroke:#010202;stroke-width:2;stroke-linejoin:round;stroke-miterlimit:10;}
	.st3{fill:none;stroke:#CDCCCC;stroke-miterlimit:10;}
	.st4{clip-path:url(#SVGID_8_);fill:#010202;}
	.st5{fill:none;stroke:#010202;stroke-width:2;stroke-linecap:round;stroke-miterlimit:10;}
	.st6{fill:#E6E6E6;stroke:#CDCCCC;stroke-miterlimit:10;}
	.st7{clip-path:url(#SVGID_2_);}
	.st8{clip-path:url(#SVGID_6_);}
	.st9{clip-path:url(#SVGID_4_);fill:none;stroke:#010202;stroke-width:2;stroke-miterlimit:10;}
	.st10{fill:none;stroke:#010202;stroke-width:2;stroke-miterlimit:10;}
	.st11{fill:none;stroke:#010202;stroke-miterlimit:10;}
	.st12{display:none;fill:none;}
	.st13{fill:#F2F2F2;stroke:#CDCCCC;stroke-miterlimit:10;}
	.st14{fill:#010202;}
	.st15{fill:#FFFFFF;stroke:#010202;stroke-width:2;stroke-miterlimit:10;}
	.st16{clip-path:url(#SVGID_4_);fill:#FFFFFF;}
	.st17{fill:none;stroke:#010202;stroke-width:2;stroke-linecap:round;stroke-linejoin:round;stroke-miterlimit:10;}
	.st18{fill:#FFFFFF;stroke:#010202;stroke-width:2;stroke-linecap:round;stroke-linejoin:round;stroke-miterlimit:10;}
]]>
</style>
<symbol  id="overheid" viewBox="-2 -5.5 4 11">
	<path id="XMLID_810_" class="st14" d="M1.5,4c0-0.8-0.7-1.5-1.5-1.5S-1.5,3.2-1.5,4S-0.8,5.5,0,5.5S1.5,4.8,1.5,4z"/>
	<path id="XMLID_379_" class="st14" d="M1.5,0c0-0.8-0.7-1.5-1.5-1.5S-1.5-0.8-1.5,0S-0.8,1.5,0,1.5S1.5,0.8,1.5,0z"/>
	<path id="XMLID_336_" class="st14" d="M1.5-4c0-0.8-0.7-1.5-1.5-1.5S-1.5-4.8-1.5-4S-0.8-2.5,0-2.5S1.5-3.2,1.5-4z"/>
	<polygon id="XMLID_814_" class="st12" points="-2,5 2,5 2,-5 -2,-5 	"/>
</symbol>
<g id="XMLID_4201_">
	<rect id="XMLID_4222_" x="8.2" y="20.2" class="st15" width="61.5" height="16.1"/>
	<line id="XMLID_4221_" class="st10" x1="66" y1="36.6" x2="66" y2="24.6"/>
	<line id="XMLID_4220_" class="st10" x1="66" y1="25.6" x2="57" y2="25.6"/>
	<line id="XMLID_4219_" class="st10" x1="57" y1="25.6" x2="57" y2="36.6"/>
	<line id="XMLID_4218_" class="st10" x1="53" y1="36.6" x2="53" y2="24.6"/>
	<line id="XMLID_4217_" class="st10" x1="53" y1="25.6" x2="45" y2="25.6"/>
	<line id="XMLID_4216_" class="st10" x1="45" y1="25.6" x2="45" y2="36.6"/>
	<line id="XMLID_4215_" class="st10" x1="41" y1="36.6" x2="41" y2="24.6"/>
	<line id="XMLID_4214_" class="st10" x1="42" y1="25.6" x2="33" y2="25.6"/>
	<line id="XMLID_4213_" class="st10" x1="33" y1="25.6" x2="33" y2="36.6"/>
	<line id="XMLID_4212_" class="st10" x1="30" y1="36.6" x2="30" y2="24.6"/>
	<line id="XMLID_4211_" class="st10" x1="30" y1="25.6" x2="22" y2="25.6"/>
	<line id="XMLID_4210_" class="st10" x1="22" y1="25.6" x2="22" y2="36.6"/>
	<line id="XMLID_4209_" class="st10" x1="19" y1="36.6" x2="19" y2="24.6"/>
	<line id="XMLID_4208_" class="st10" x1="20" y1="25.6" x2="11" y2="25.6"/>
	<line id="XMLID_4207_" class="st10" x1="11" y1="25.6" x2="11" y2="36.6"/>
	<line id="XMLID_4206_" class="st10" x1="69.7" y1="20.2" x2="64.9" y2="6.7"/>
	<line id="XMLID_4205_" class="st10" x1="8.4" y1="20.2" x2="5.7" y2="6.7"/>
	<line id="XMLID_4204_" class="st10" x1="8.4" y1="36.6" x2="5.9" y2="23.1"/>
	<line id="XMLID_4203_" class="st10" x1="5" y1="6.6" x2="5" y2="22.6"/>
	<line id="XMLID_4202_" class="st10" x1="5" y1="7.6" x2="64" y2="7.6"/>
</g>
</svg>
